<?xml version="1.0" encoding="UTF-8" standalone="no"?>
<!-- Created with Inkscape (http://www.inkscape.org/) -->

<svg
   xmlns:dc="http://purl.org/dc/elements/1.1/"
   xmlns:cc="http://creativecommons.org/ns#"
   xmlns:rdf="http://www.w3.org/1999/02/22-rdf-syntax-ns#"
   xmlns:svg="http://www.w3.org/2000/svg"
   xmlns="http://www.w3.org/2000/svg"
   xmlns:sodipodi="http://sodipodi.sourceforge.net/DTD/sodipodi-0.dtd"
   xmlns:inkscape="http://www.inkscape.org/namespaces/inkscape"
   width="303mm"
   height="314mm"
   viewBox="0 0 1073.6221 1112.5983"
   id="svg2"
   version="1.1"
   inkscape:version="0.91 r13725"
   sodipodi:docname="Logo.svg">
  <defs
     id="defs4" />
  <sodipodi:namedview
     id="base"
     pagecolor="#ffffff"
     bordercolor="#666666"
     borderopacity="1.0"
     inkscape:pageopacity="0.0"
     inkscape:pageshadow="2"
     inkscape:zoom="31.678384"
     inkscape:cx="686.6648"
     inkscape:cy="1108.0238"
     inkscape:document-units="px"
     inkscape:current-layer="layer1"
     showgrid="false"
     inkscape:window-width="1366"
     inkscape:window-height="745"
     inkscape:window-x="-8"
     inkscape:window-y="-8"
     inkscape:window-maximized="1" />
  <metadata
     id="metadata7">
    <rdf:RDF>
      <cc:Work
         rdf:about="">
        <dc:format>image/svg+xml</dc:format>
        <dc:type
           rdf:resource="http://purl.org/dc/dcmitype/StillImage" />
        <dc:title></dc:title>
      </cc:Work>
    </rdf:RDF>
  </metadata>
  <g
     inkscape:label="Layer 1"
     inkscape:groupmode="layer"
     id="layer1"
     transform="translate(0,60.236219)">
    <g
       id="g4162"
       transform="translate(144.71944,-69.578995)">
      <g
         transform="matrix(0.96072221,-0.27751186,0.27751186,0.96072221,299.61272,238.40983)"
         id="g4293">
        <path
           style="fill:#800080;fill-opacity:1;stroke:none;stroke-opacity:1"
           d="m 288.27493,-76.725816 c 20.7061,0 27.73909,13.691197 37.37564,26.863745 167.61826,229.123451 9.22952,489.911431 0,736.211801 -0.55748,14.87712 -16.66954,26.86378 -37.37564,26.86378 -20.70611,0 -38.10015,-11.9904 -37.37565,-26.86378 11.97651,-245.86922 164.71587,-497.20729 0,-736.211801 -9.19088,-13.336069 16.66954,-26.863745 37.37565,-26.863745 z"
           id="rect4211"
           inkscape:connector-curvature="0"
           sodipodi:nodetypes="sssssss" />
        <rect
           style="fill:#980098;fill-opacity:1;stroke:none;stroke-opacity:1"
           id="rect4216"
           width="108.98761"
           height="214.69247"
           x="200.87726"
           y="-168.1084"
           ry="42.466644"
           transform="matrix(0.99847397,0.0552244,-0.09117565,0.99583483,0,0)" />
        <path
           style="fill:#ededed;fill-opacity:1;stroke:none;stroke-opacity:1"
           inkscape:transform-center-x="-2.6500132"
           inkscape:transform-center-y="-1.4982825"
           d="M 198.65832,11.065254 309.33161,23.008179 C 309.82046,100.33616 290.31613,143.39097 247.26149,141.07012 214.69871,133.59238 191.09505,106.48047 198.65832,11.065254 Z"
           id="path4218"
           inkscape:connector-curvature="0"
           sodipodi:nodetypes="cccc" />
        <rect
           style="fill:#ededed;fill-opacity:1;stroke:none;stroke-opacity:1"
           id="rect4216-3"
           width="34.848824"
           height="68.310875"
           x="67.078125"
           y="179.43185"
           ry="13.512042"
           transform="matrix(-0.00195008,-0.9999981,0.9993936,0.03481995,0,0)" />
        <rect
           style="fill:#ededed;fill-opacity:1;stroke:none;stroke-opacity:1"
           id="rect4216-3-6"
           width="34.848824"
           height="68.310875"
           x="83.197304"
           y="255.04356"
           ry="13.512042"
           transform="matrix(0.05245208,-0.99862344,0.99601957,0.08913478,0,0)" />
      </g>
      <g
         transform="translate(1345.632,225.54853)"
         id="g4281">
        <ellipse
           style="fill:#f2f38a;fill-opacity:1;stroke:none;stroke-opacity:1"
           id="path4183"
           cx="-956.40753"
           cy="433.77338"
           rx="250.00002"
           ry="277.14285" />
        <path
           style="fill:#f8f984;fill-opacity:1;stroke:none;stroke-opacity:1"
           d="m -778.5234,181.21481 c 0,98.18897 -80.24038,113.50114 -180.10302,113.50114 -99.86268,-1e-5 -181.53158,-15.31218 -181.53158,-113.50114 0,-98.18896 80.9547,-177.78684 180.81729,-177.78685 99.86264,0 180.81731,79.59788 180.81731,177.78685 z"
           id="path4185"
           inkscape:connector-curvature="0"
           sodipodi:nodetypes="sssss" />
        <path
           style="fill:#1a1a1a;fill-opacity:1;stroke:none;stroke-opacity:1"
           d="m -995.01373,150.49491 c -1.56666,8.93697 -10.22667,-34.34034 -48.69447,-41.08376 -38.4678,-6.74342 -78.1854,30.61719 -76.6187,21.68022 1.5666,-8.93697 40.0742,-39.3952 78.542,-32.65178 38.4678,6.74342 48.33782,43.11835 46.77117,52.05532 z"
           id="path4206"
           inkscape:connector-curvature="0"
           sodipodi:nodetypes="sssss" />
        <path
           sodipodi:nodetypes="sssss"
           inkscape:connector-curvature="0"
           id="path4209"
           d="m -926.14014,147.01633 c 1.54362,8.94098 10.31514,-34.31387 48.80022,-40.95812 38.48509,-6.64424 78.10618,30.81862 76.56257,21.87764 -1.54361,-8.94098 -39.97251,-39.49836 -78.4576,-32.85412 -38.48508,6.64425 -48.4488,42.99362 -46.90519,51.9346 z"
           style="fill:#1a1a1a;fill-opacity:1;stroke:none;stroke-opacity:1" />
      </g>
      <g
         transform="translate(1210.2715,461.92413)"
         id="g4275">
        <path
           style="fill:#f35400;fill-opacity:1;stroke:none;stroke-opacity:1"
           d="m -618.36838,25.023523 c 97.60985,-26.1444802 186.85357,-10.45837 277.14285,0 -24.28571,216.066707 -48.57143,274.285707 -72.85714,411.428557 -52.43968,34.08361 -94.50681,19.76196 -135.71428,1.42857 -27.32275,-137.61904 -69.03794,-275.23809 -68.57143,-412.857127 z"
           id="rect4158"
           inkscape:connector-curvature="0"
           sodipodi:nodetypes="ccccc" />
        <path
           sodipodi:type="star"
           style="fill:#f85500;fill-opacity:1;stroke:none;stroke-opacity:1"
           id="path4161"
           sodipodi:sides="3"
           sodipodi:cx="434.28571"
           sodipodi:cy="179.50507"
           sodipodi:r1="170.28787"
           sodipodi:r2="85.143936"
           sodipodi:arg1="-0.52747058"
           sodipodi:arg2="0.51972697"
           inkscape:flatsided="true"
           inkscape:rounded="0"
           inkscape:randomized="0"
           d="M 581.42856,93.79078 434.94503,349.79166 286.48353,94.932756 Z"
           inkscape:transform-center-x="18.0883"
           inkscape:transform-center-y="21.58882"
           transform="matrix(0.92707264,-0.1897096,0.20885593,0.84208563,-957.99076,-82.468131)" />
        <path
           style="fill:#143800;fill-opacity:1;stroke:none;stroke-opacity:1"
           d="m -541.67281,-13.844067 c -2.22727,8.4345098 -19.49272,11.1896298 -38.56347,6.1536998 -19.07076,-5.0359098 -32.72512,-15.9558598 -30.49786,-24.3903598 2.22726,-8.43451 14.29512,5.8541 33.36588,10.89001 19.07075,5.0359 37.92271,-1.08786 35.69545,7.34665 z"
           id="path4165"
           inkscape:connector-curvature="0"
           sodipodi:nodetypes="sssss" />
        <path
           style="fill:#143800;fill-opacity:1;stroke:none;stroke-opacity:1"
           d="m -450.84001,-65.490611 c 5.40329,6.848804 -2.76988,22.304744 -18.25528,34.521794 -15.48539,12.21705 -32.41903,16.56891 -37.82232,9.7201 -5.4033,-6.84879 13.26954,-7.90821 28.75494,-20.12527 15.48539,-12.21707 21.91935,-30.965414 27.32266,-24.116624 z"
           id="path4165-7"
           inkscape:connector-curvature="0"
           sodipodi:nodetypes="sssss" />
      </g>
      <g
         transform="translate(196.07833,292.21853)"
         id="g4287">
        <ellipse
           style="fill:#000000;fill-opacity:1;stroke:none;stroke-opacity:1"
           id="path4136"
           cx="-142.85715"
           cy="156.64792"
           rx="125.71429"
           ry="121.42857" />
        <path
           style="fill:#000000;fill-opacity:1;stroke:none;stroke-opacity:1"
           d="m -214.86813,249.50508 108.31183,2.85715 c 77.042146,110.9663 100.3805155,224.56794 100.8420355,342.85714 l -302.5261255,5.71429 c -6.80804,-114.76791 8.99109,-222.70895 93.37226,-351.42858 z"
           id="rect4138"
           inkscape:connector-curvature="0"
           sodipodi:nodetypes="ccccc" />
        <rect
           style="fill:#ffffff;fill-opacity:1;stroke:none;stroke-opacity:1"
           id="rect4141"
           width="48.57143"
           height="24.642857"
           x="-191.42859"
           y="135.21935" />
        <rect
           style="fill:#ffffff;fill-opacity:1;stroke:none;stroke-opacity:1"
           id="rect4141-5"
           width="48.57143"
           height="24.642857"
           x="-117.14286"
           y="135.21935" />
      </g>
      <path
         inkscape:connector-curvature="0"
         id="rect4318"
         d="m -144.71944,868.44723 1075.55501,0 0,253.49397 -1075.55501,0 z"
         style="fill:#333333;fill-opacity:1;stroke:none;stroke-opacity:1" />
      <path
         style="fill:#333333;fill-opacity:1;stroke:none;stroke-opacity:1"
         d="m 115.6339,724.82672 c -10.3649,3.95767 -13.6751,2.26301 -16.341042,-7.21293 l 5.381472,-12.77992 c -5.562572,2.15288 -10.425452,4.54632 -17.045748,3.67977 -2.235201,-0.96984 -4.962102,-1.47849 -7.656458,-2.35762 -5.048532,-0.0926 -9.58386,-0.95114 -14.289538,-1.55543 -4.364086,-0.57398 -7.491769,-3.41288 -10.080269,-7.23946 l -14.865614,14.93566 c -10.216179,7.23293 -17.050289,2.68521 -23.536339,-3.07488 3.09722,-22.53666 15.958509,-39.03664 25.971389,-57.29771 7.505054,0.0737 14.914994,0.43052 21.218205,4.08175 1.944444,3.90145 3.247761,8.29915 8.405353,9.71358 14.9486,2.71667 23.254347,5.08511 28.186289,7.414 5.75801,0.74321 11.86312,-1.23826 17.995,-3.43007 6.26218,0.72871 11.48044,3.36969 15.96179,7.36059 4.91582,22.9701 -8.74871,33.22372 -19.30449,47.76267 z"
         id="path4353"
         inkscape:connector-curvature="0"
         sodipodi:nodetypes="cccccccccccccccc" />
      <path
         sodipodi:nodetypes="cccccccccccccccc"
         inkscape:connector-curvature="0"
         id="rect4344"
         d="m 666.84205,648.26527 c 10.93543,1.87377 13.85441,-0.43032 14.63323,-10.24328 l -7.75636,-11.49459 c 5.87436,1.03396 11.10891,2.43952 17.43573,0.3063 2.00485,-1.38466 4.58146,-2.41218 7.05434,-3.79684 4.93485,-1.06935 9.21779,-2.79059 13.71712,-4.29545 4.17009,-1.40892 6.68825,-4.80017 8.48602,-9.05588 l 17.47848,11.77129 c 11.4243,5.11575 17.24742,-0.67028 22.49409,-7.57824 -7.4064,-21.50904 -23.22174,-35.20346 -36.58401,-51.17764 -7.34846,1.52688 -14.54874,3.31309 -20.02477,8.11674 -1.15142,4.20433 -1.57769,8.77124 -6.36335,11.15846 -14.13862,5.56241 -21.82785,9.4957 -26.2149,12.73631 -5.50478,1.8451 -11.87816,1.08446 -18.31858,0.12265 -6.0022,1.92859 -10.60966,5.53086 -14.23254,10.31463 -0.37069,23.48731 15.02203,30.89813 28.1955,43.11554 z"
         style="fill:#333333;fill-opacity:1;stroke:none;stroke-opacity:1" />
      <path
         inkscape:connector-curvature="0"
         id="rect4300"
         d="m 136.93982,589.47483 494.97476,0 0,307.0863 -494.97476,0 z"
         style="fill:#666666;fill-opacity:1;stroke:none;stroke-opacity:1" />
      <path
         id="rect4300-1"
         d="m 327.72884,826.33243 119.19802,0 0,147.4822 -119.19802,0 z"
         style="fill:#5a5a5a;fill-opacity:1;stroke:none;stroke-opacity:1"
         inkscape:connector-curvature="0" />
      <rect
         rx="0"
         ry="4.3872395"
         y="727.5506"
         x="299.4668"
         height="8.7744789"
         width="177.78685"
         id="rect4321"
         style="fill:#333333;fill-opacity:1;stroke:none;stroke-opacity:1" />
      <rect
         style="fill:#333333;fill-opacity:1;stroke:none;stroke-opacity:1"
         id="rect4340"
         width="177.78685"
         height="8.7744789"
         x="299.4668"
         y="757.75079"
         ry="4.3872395"
         rx="0" />
      <rect
         style="fill:#333333;fill-opacity:1;stroke:none;stroke-opacity:1"
         id="rect4342"
         width="177.78685"
         height="8.7744789"
         x="299.4668"
         y="701.95135"
         ry="4.3872395"
         rx="0" />
    </g>
  </g>
</svg>
